include "hUGE.inc"

SECTION "battle_theme Song Data", ROMX

battle_theme::
db 4
dw order_cnt
dw order1, order2, order3, order4
dw duty_instruments, wave_instruments, noise_instruments
dw routines
dw waves

order_cnt: db 8
order1: dw P0,P2,P8,P12
order2: dw P1,P2,P9,P13
order3: dw P2,P2,P2,P2
order4: dw P2,P7,P11,P15

P0:
 dn G_5,2,$000
 dn G_5,2,$000
 dn G_5,2,$000
 dn A#5,2,$000
 dn ___,0,$000
 dn D#6,2,$000
 dn ___,0,$000
 dn F_6,2,$000
 dn ___,0,$000
 dn G_6,2,$000
 dn ___,0,$000
 dn ___,0,$000
 dn ___,0,$000
 dn ___,0,$000
 dn ___,0,$000
 dn ___,0,$000
 dn ___,0,$000
 dn ___,0,$000
 dn ___,0,$000
 dn ___,0,$000
 dn ___,0,$000
 dn ___,0,$000
 dn ___,0,$000
 dn ___,0,$000
 dn ___,0,$000
 dn ___,0,$000
 dn ___,0,$000
 dn ___,0,$000
 dn ___,0,$000
 dn ___,0,$000
 dn ___,0,$000
 dn ___,0,$000
 dn ___,0,$000
 dn ___,0,$000
 dn ___,0,$000
 dn ___,0,$000
 dn ___,0,$000
 dn ___,0,$000
 dn ___,0,$000
 dn ___,0,$000
 dn ___,0,$000
 dn ___,0,$000
 dn ___,0,$000
 dn ___,0,$000
 dn ___,0,$000
 dn ___,0,$000
 dn ___,0,$000
 dn ___,0,$000
 dn ___,0,$000
 dn ___,0,$000
 dn ___,0,$000
 dn ___,0,$000
 dn ___,0,$000
 dn ___,0,$000
 dn ___,0,$000
 dn ___,0,$000
 dn ___,0,$000
 dn ___,0,$000
 dn ___,0,$000
 dn ___,0,$000
 dn ___,0,$000
 dn ___,0,$000
 dn ___,0,$000
 dn ___,0,$000

P1:
 dn D_5,2,$000
 dn D_5,2,$000
 dn D_5,2,$000
 dn ___,0,$000
 dn ___,0,$000
 dn G_5,2,$000
 dn ___,0,$000
 dn A#5,2,$000
 dn ___,0,$000
 dn D#6,2,$000
 dn ___,0,$000
 dn ___,0,$000
 dn ___,0,$000
 dn ___,0,$000
 dn ___,0,$000
 dn ___,0,$000
 dn ___,0,$000
 dn ___,0,$000
 dn ___,0,$000
 dn ___,0,$000
 dn ___,0,$000
 dn ___,0,$000
 dn ___,0,$000
 dn ___,0,$000
 dn ___,0,$000
 dn ___,0,$000
 dn ___,0,$000
 dn ___,0,$000
 dn ___,0,$000
 dn ___,0,$000
 dn ___,0,$000
 dn ___,0,$000
 dn ___,0,$000
 dn ___,0,$000
 dn ___,0,$000
 dn ___,0,$000
 dn ___,0,$000
 dn ___,0,$000
 dn ___,0,$000
 dn ___,0,$000
 dn ___,0,$000
 dn ___,0,$000
 dn ___,0,$000
 dn ___,0,$000
 dn ___,0,$000
 dn ___,0,$000
 dn ___,0,$000
 dn ___,0,$000
 dn ___,0,$000
 dn ___,0,$000
 dn ___,0,$000
 dn ___,0,$000
 dn ___,0,$000
 dn ___,0,$000
 dn ___,0,$000
 dn ___,0,$000
 dn ___,0,$000
 dn ___,0,$000
 dn ___,0,$000
 dn ___,0,$000
 dn ___,0,$000
 dn ___,0,$000
 dn ___,0,$000
 dn ___,0,$000

P2:
 dn ___,0,$000
 dn ___,0,$000
 dn ___,0,$000
 dn ___,0,$000
 dn ___,0,$000
 dn ___,0,$000
 dn ___,0,$000
 dn ___,0,$000
 dn ___,0,$000
 dn ___,0,$000
 dn ___,0,$000
 dn ___,0,$000
 dn ___,0,$000
 dn ___,0,$000
 dn ___,0,$000
 dn ___,0,$000
 dn ___,0,$000
 dn ___,0,$000
 dn ___,0,$000
 dn ___,0,$000
 dn ___,0,$000
 dn ___,0,$000
 dn ___,0,$000
 dn ___,0,$000
 dn ___,0,$000
 dn ___,0,$000
 dn ___,0,$000
 dn ___,0,$000
 dn ___,0,$000
 dn ___,0,$000
 dn ___,0,$000
 dn ___,0,$000
 dn ___,0,$000
 dn ___,0,$000
 dn ___,0,$000
 dn ___,0,$000
 dn ___,0,$000
 dn ___,0,$000
 dn ___,0,$000
 dn ___,0,$000
 dn ___,0,$000
 dn ___,0,$000
 dn ___,0,$000
 dn ___,0,$000
 dn ___,0,$000
 dn ___,0,$000
 dn ___,0,$000
 dn ___,0,$000
 dn ___,0,$000
 dn ___,0,$000
 dn ___,0,$000
 dn ___,0,$000
 dn ___,0,$000
 dn ___,0,$000
 dn ___,0,$000
 dn ___,0,$000
 dn ___,0,$000
 dn ___,0,$000
 dn ___,0,$000
 dn ___,0,$000
 dn ___,0,$000
 dn ___,0,$000
 dn ___,0,$000
 dn ___,0,$000

P7:
 dn A#4,9,$000
 dn ___,0,$000
 dn ___,0,$000
 dn ___,0,$000
 dn A#4,1,$000
 dn ___,0,$000
 dn ___,0,$000
 dn ___,0,$000
 dn A#4,1,$000
 dn ___,0,$000
 dn ___,0,$000
 dn ___,0,$000
 dn A#4,1,$000
 dn A#4,1,$000
 dn A#4,1,$000
 dn ___,0,$000
 dn A#4,9,$000
 dn ___,0,$000
 dn ___,0,$000
 dn ___,0,$000
 dn A#4,1,$000
 dn ___,0,$000
 dn ___,0,$000
 dn ___,0,$000
 dn A#4,1,$000
 dn ___,0,$000
 dn ___,0,$000
 dn ___,0,$000
 dn A#4,1,$000
 dn A#4,1,$000
 dn A#4,1,$000
 dn ___,0,$000
 dn A#4,9,$000
 dn ___,0,$000
 dn ___,0,$000
 dn ___,0,$000
 dn A#4,1,$000
 dn ___,0,$000
 dn ___,0,$000
 dn ___,0,$000
 dn A#4,1,$000
 dn ___,0,$000
 dn ___,0,$000
 dn ___,0,$000
 dn ___,0,$000
 dn ___,0,$000
 dn A#4,1,$000
 dn ___,0,$000
 dn A#4,9,$000
 dn ___,0,$000
 dn ___,0,$000
 dn ___,0,$000
 dn A#4,1,$000
 dn ___,0,$000
 dn ___,0,$000
 dn ___,0,$000
 dn A#4,1,$000
 dn ___,0,$000
 dn A#4,9,$000
 dn ___,0,$000
 dn ___,0,$000
 dn ___,0,$000
 dn ___,0,$000
 dn A#4,1,$000

P8:
 dn C_7,1,$000
 dn ___,0,$000
 dn B_6,1,$000
 dn ___,0,$000
 dn C_7,1,$000
 dn ___,0,$000
 dn ___,0,$000
 dn ___,0,$000
 dn G_7,1,$000
 dn ___,0,$000
 dn ___,0,$000
 dn ___,0,$000
 dn G_6,1,$000
 dn A_6,1,$000
 dn B_6,1,$000
 dn ___,0,$000
 dn C_7,1,$000
 dn ___,0,$000
 dn B_6,1,$000
 dn ___,0,$000
 dn C_7,1,$000
 dn ___,0,$000
 dn ___,0,$000
 dn ___,0,$000
 dn G_7,1,$000
 dn ___,0,$000
 dn ___,0,$000
 dn ___,0,$000
 dn G_6,1,$000
 dn A_6,1,$000
 dn B_6,1,$000
 dn ___,0,$000
 dn C_7,1,$000
 dn ___,0,$000
 dn B_6,1,$000
 dn ___,0,$000
 dn C_7,1,$000
 dn ___,0,$000
 dn ___,0,$000
 dn ___,0,$000
 dn F_6,1,$000
 dn ___,0,$000
 dn ___,0,$000
 dn ___,0,$000
 dn C_7,1,$000
 dn ___,0,$000
 dn ___,0,$000
 dn ___,0,$000
 dn E_6,1,$000
 dn ___,0,$000
 dn D#6,1,$000
 dn ___,0,$000
 dn E_6,1,$000
 dn ___,0,$000
 dn ___,0,$000
 dn ___,0,$000
 dn G_6,1,$000
 dn ___,0,$000
 dn ___,0,$000
 dn ___,0,$000
 dn D_6,1,$000
 dn ___,0,$000
 dn ___,0,$000
 dn ___,0,$000

P9:
 dn C_6,4,$000
 dn ___,0,$000
 dn ___,0,$000
 dn ___,0,$000
 dn ___,0,$000
 dn ___,0,$000
 dn ___,0,$000
 dn ___,0,$000
 dn D_6,4,$000
 dn ___,0,$000
 dn ___,0,$000
 dn ___,0,$000
 dn ___,0,$000
 dn ___,0,$000
 dn ___,0,$000
 dn ___,0,$000
 dn E_6,4,$000
 dn ___,0,$000
 dn ___,0,$000
 dn ___,0,$000
 dn ___,0,$000
 dn ___,0,$000
 dn ___,0,$000
 dn ___,0,$000
 dn F_6,4,$000
 dn ___,0,$000
 dn ___,0,$000
 dn ___,0,$000
 dn ___,0,$000
 dn ___,0,$000
 dn ___,0,$000
 dn ___,0,$000
 dn E_6,4,$000
 dn ___,0,$000
 dn ___,0,$000
 dn ___,0,$000
 dn ___,0,$000
 dn ___,0,$000
 dn ___,0,$000
 dn ___,0,$000
 dn D_6,4,$000
 dn ___,0,$000
 dn ___,0,$000
 dn ___,0,$000
 dn ___,0,$000
 dn ___,0,$000
 dn ___,0,$000
 dn ___,0,$000
 dn C_6,4,$000
 dn ___,0,$000
 dn ___,0,$000
 dn ___,0,$000
 dn ___,0,$000
 dn ___,0,$000
 dn ___,0,$000
 dn ___,0,$000
 dn G_6,4,$000
 dn ___,0,$000
 dn ___,0,$000
 dn ___,0,$000
 dn ___,0,$000
 dn ___,0,$000
 dn ___,0,$000
 dn ___,0,$000

P11:
 dn A#4,9,$000
 dn ___,0,$000
 dn ___,0,$000
 dn ___,0,$000
 dn A#4,1,$000
 dn ___,0,$000
 dn ___,0,$000
 dn ___,0,$000
 dn A#4,1,$000
 dn ___,0,$000
 dn ___,0,$000
 dn ___,0,$000
 dn A#4,1,$000
 dn A#4,1,$000
 dn A#4,1,$000
 dn ___,0,$000
 dn A#4,9,$000
 dn ___,0,$000
 dn ___,0,$000
 dn ___,0,$000
 dn A#4,1,$000
 dn ___,0,$000
 dn ___,0,$000
 dn ___,0,$000
 dn A#4,1,$000
 dn ___,0,$000
 dn ___,0,$000
 dn ___,0,$000
 dn A#4,1,$000
 dn A#4,1,$000
 dn A#4,1,$000
 dn ___,0,$000
 dn A#4,9,$000
 dn ___,0,$000
 dn ___,0,$000
 dn ___,0,$000
 dn A#4,1,$000
 dn ___,0,$000
 dn ___,0,$000
 dn ___,0,$000
 dn A#4,1,$000
 dn ___,0,$000
 dn ___,0,$000
 dn ___,0,$000
 dn ___,0,$000
 dn ___,0,$000
 dn A#4,1,$000
 dn ___,0,$000
 dn A#4,9,$000
 dn ___,0,$000
 dn ___,0,$000
 dn ___,0,$000
 dn ___,0,$000
 dn ___,0,$000
 dn A#4,1,$000
 dn A#4,1,$000
 dn A#4,1,$000
 dn A#4,1,$000
 dn A#4,1,$000
 dn A#4,1,$000
 dn A#4,9,$000
 dn ___,0,$000
 dn ___,0,$000
 dn ___,0,$000

P12:
 dn C#6,1,$000
 dn ___,0,$000
 dn ___,0,$000
 dn ___,0,$000
 dn A_5,1,$000
 dn B_5,1,$000
 dn C#6,1,$000
 dn ___,0,$000
 dn D_6,1,$000
 dn ___,0,$000
 dn ___,0,$000
 dn ___,0,$000
 dn A_5,1,$000
 dn ___,0,$000
 dn ___,0,$000
 dn ___,0,$000
 dn B_5,1,$000
 dn ___,0,$000
 dn ___,0,$000
 dn ___,0,$000
 dn G_5,1,$000
 dn A_5,1,$000
 dn B_5,1,$000
 dn ___,0,$000
 dn C_6,1,$000
 dn ___,0,$000
 dn ___,0,$000
 dn ___,0,$000
 dn G_5,1,$000
 dn ___,0,$000
 dn ___,0,$000
 dn ___,0,$000
 dn A_5,1,$000
 dn ___,0,$000
 dn ___,0,$000
 dn ___,0,$000
 dn F#5,1,$000
 dn G_5,1,$000
 dn A_5,1,$000
 dn ___,0,$000
 dn B_5,1,$000
 dn ___,0,$000
 dn ___,0,$000
 dn ___,0,$000
 dn F#5,1,$000
 dn ___,0,$000
 dn ___,0,$000
 dn ___,0,$000
 dn A_5,1,$000
 dn ___,0,$000
 dn ___,0,$000
 dn ___,0,$000
 dn F_5,1,$000
 dn ___,0,$000
 dn G_5,1,$000
 dn ___,0,$000
 dn C_6,1,$000
 dn ___,0,$000
 dn F_6,1,$000
 dn ___,0,$000
 dn G_6,1,$000
 dn A_6,1,$000
 dn B_6,1,$000
 dn ___,0,$000

P13:
 dn A_5,4,$000
 dn ___,0,$000
 dn ___,0,$000
 dn ___,0,$000
 dn G_5,4,$000
 dn ___,0,$000
 dn ___,0,$000
 dn ___,0,$000
 dn F#5,4,$000
 dn ___,0,$000
 dn ___,0,$000
 dn ___,0,$000
 dn ___,0,$000
 dn ___,0,$000
 dn ___,0,$000
 dn ___,0,$000
 dn G_5,4,$000
 dn ___,0,$000
 dn ___,0,$000
 dn ___,0,$000
 dn F_5,4,$000
 dn ___,0,$000
 dn ___,0,$000
 dn ___,0,$000
 dn E_5,4,$000
 dn ___,0,$000
 dn ___,0,$000
 dn ___,0,$000
 dn ___,0,$000
 dn ___,0,$000
 dn ___,0,$000
 dn ___,0,$000
 dn F#5,4,$000
 dn ___,0,$000
 dn ___,0,$000
 dn ___,0,$000
 dn E_5,4,$000
 dn ___,0,$000
 dn ___,0,$000
 dn ___,0,$000
 dn D#5,4,$000
 dn ___,0,$000
 dn ___,0,$000
 dn ___,0,$000
 dn B_4,4,$000
 dn ___,0,$000
 dn ___,0,$000
 dn ___,0,$000
 dn E_5,4,$000
 dn ___,0,$000
 dn ___,0,$000
 dn ___,0,$000
 dn D_5,4,$000
 dn ___,0,$000
 dn E_5,4,$000
 dn ___,0,$000
 dn F_5,4,$000
 dn E_5,4,$000
 dn F_5,4,$000
 dn ___,0,$000
 dn G_5,4,$000
 dn ___,0,$000
 dn C_6,4,$000
 dn ___,0,$000

P15:
 dn ___,0,$000
 dn ___,0,$000
 dn ___,0,$000
 dn ___,0,$000
 dn A#4,1,$000
 dn ___,0,$000
 dn ___,0,$000
 dn ___,0,$000
 dn A#4,1,$000
 dn ___,0,$000
 dn ___,0,$000
 dn ___,0,$000
 dn A#4,1,$000
 dn A#4,1,$000
 dn A#4,1,$000
 dn ___,0,$000
 dn A#4,9,$000
 dn ___,0,$000
 dn ___,0,$000
 dn ___,0,$000
 dn A#4,1,$000
 dn ___,0,$000
 dn ___,0,$000
 dn ___,0,$000
 dn A#4,1,$000
 dn ___,0,$000
 dn ___,0,$000
 dn ___,0,$000
 dn A#4,1,$000
 dn A#4,1,$000
 dn A#4,1,$000
 dn ___,0,$000
 dn A#4,9,$000
 dn ___,0,$000
 dn ___,0,$000
 dn ___,0,$000
 dn A#4,1,$000
 dn ___,0,$000
 dn ___,0,$000
 dn ___,0,$000
 dn A#4,1,$000
 dn ___,0,$000
 dn A#4,9,$000
 dn ___,0,$000
 dn ___,0,$000
 dn ___,0,$000
 dn ___,0,$000
 dn A#4,1,$000
 dn A#4,9,$000
 dn ___,0,$000
 dn ___,0,$000
 dn ___,0,$000
 dn ___,0,$000
 dn ___,0,$000
 dn ___,0,$000
 dn ___,0,$000
 dn ___,0,$000
 dn ___,0,$000
 dn ___,0,$000
 dn ___,0,$000
 dn A#4,1,$000
 dn A#4,1,$000
 dn A#4,1,$000
 dn ___,0,$B03

itNoiseSP1:
 dn 68,0,$000
 dn 68,2,$000
 dn ___,0,$000
 dn ___,0,$000
 dn ___,0,$000
 dn ___,0,$000
 dn ___,0,$000
 dn ___,0,$000
 dn ___,0,$000
 dn ___,0,$000
 dn ___,0,$000
 dn ___,0,$000
 dn ___,0,$000
 dn ___,0,$000
 dn ___,0,$000
 dn ___,0,$000
 dn ___,0,$000
 dn ___,0,$000
 dn ___,0,$000
 dn ___,0,$000
 dn ___,0,$000
 dn ___,0,$000
 dn ___,0,$000
 dn ___,0,$000
 dn ___,0,$000
 dn ___,0,$000
 dn ___,0,$000
 dn ___,0,$000
 dn ___,0,$000
 dn ___,0,$000
 dn ___,0,$000
 dn ___,1,$000

itNoiseSP2:
 dn 67,0,$000
 dn 67,2,$000
 dn ___,0,$000
 dn ___,0,$000
 dn ___,0,$000
 dn ___,0,$000
 dn ___,0,$000
 dn ___,0,$000
 dn ___,0,$000
 dn ___,0,$000
 dn ___,0,$000
 dn ___,0,$000
 dn ___,0,$000
 dn ___,0,$000
 dn ___,0,$000
 dn ___,0,$000
 dn ___,0,$000
 dn ___,0,$000
 dn ___,0,$000
 dn ___,0,$000
 dn ___,0,$000
 dn ___,0,$000
 dn ___,0,$000
 dn ___,0,$000
 dn ___,0,$000
 dn ___,0,$000
 dn ___,0,$000
 dn ___,0,$000
 dn ___,0,$000
 dn ___,0,$000
 dn ___,0,$000
 dn ___,1,$000

itNoiseSP3:
 dn 66,0,$000
 dn 65,0,$000
 dn 64,0,$000
 dn 64,4,$000
 dn ___,0,$000
 dn ___,0,$000
 dn ___,0,$000
 dn ___,0,$000
 dn ___,0,$000
 dn ___,0,$000
 dn ___,0,$000
 dn ___,0,$000
 dn ___,0,$000
 dn ___,0,$000
 dn ___,0,$000
 dn ___,0,$000
 dn ___,0,$000
 dn ___,0,$000
 dn ___,0,$000
 dn ___,0,$000
 dn ___,0,$000
 dn ___,0,$000
 dn ___,0,$000
 dn ___,0,$000
 dn ___,0,$000
 dn ___,0,$000
 dn ___,0,$000
 dn ___,0,$000
 dn ___,0,$000
 dn ___,0,$000
 dn ___,0,$000
 dn ___,1,$000

itNoiseSP4:
 dn 68,0,$000
 dn 68,2,$000
 dn ___,0,$000
 dn ___,0,$000
 dn ___,0,$000
 dn ___,0,$000
 dn ___,0,$000
 dn ___,0,$000
 dn ___,0,$000
 dn ___,0,$000
 dn ___,0,$000
 dn ___,0,$000
 dn ___,0,$000
 dn ___,0,$000
 dn ___,0,$000
 dn ___,0,$000
 dn ___,0,$000
 dn ___,0,$000
 dn ___,0,$000
 dn ___,0,$000
 dn ___,0,$000
 dn ___,0,$000
 dn ___,0,$000
 dn ___,0,$000
 dn ___,0,$000
 dn ___,0,$000
 dn ___,0,$000
 dn ___,0,$000
 dn ___,0,$000
 dn ___,0,$000
 dn ___,0,$000
 dn ___,1,$000

itNoiseSP5:
 dn 60,0,$000
 dn 60,2,$000
 dn ___,0,$000
 dn ___,0,$000
 dn ___,0,$000
 dn ___,0,$000
 dn ___,0,$000
 dn ___,0,$000
 dn ___,0,$000
 dn ___,0,$000
 dn ___,0,$000
 dn ___,0,$000
 dn ___,0,$000
 dn ___,0,$000
 dn ___,0,$000
 dn ___,0,$000
 dn ___,0,$000
 dn ___,0,$000
 dn ___,0,$000
 dn ___,0,$000
 dn ___,0,$000
 dn ___,0,$000
 dn ___,0,$000
 dn ___,0,$000
 dn ___,0,$000
 dn ___,0,$000
 dn ___,0,$000
 dn ___,0,$000
 dn ___,0,$000
 dn ___,0,$000
 dn ___,0,$000
 dn ___,1,$000

itNoiseSP6:
 dn 52,0,$000
 dn 52,2,$000
 dn ___,0,$000
 dn ___,0,$000
 dn ___,0,$000
 dn ___,0,$000
 dn ___,0,$000
 dn ___,0,$000
 dn ___,0,$000
 dn ___,0,$000
 dn ___,0,$000
 dn ___,0,$000
 dn ___,0,$000
 dn ___,0,$000
 dn ___,0,$000
 dn ___,0,$000
 dn ___,0,$000
 dn ___,0,$000
 dn ___,0,$000
 dn ___,0,$000
 dn ___,0,$000
 dn ___,0,$000
 dn ___,0,$000
 dn ___,0,$000
 dn ___,0,$000
 dn ___,0,$000
 dn ___,0,$000
 dn ___,0,$000
 dn ___,0,$000
 dn ___,0,$000
 dn ___,0,$000
 dn ___,1,$000

itNoiseSP7:
 dn 60,0,$000
 dn 60,2,$000
 dn ___,0,$000
 dn ___,0,$000
 dn ___,0,$000
 dn ___,0,$000
 dn ___,0,$000
 dn ___,0,$000
 dn ___,0,$000
 dn ___,0,$000
 dn ___,0,$000
 dn ___,0,$000
 dn ___,0,$000
 dn ___,0,$000
 dn ___,0,$000
 dn ___,0,$000
 dn ___,0,$000
 dn ___,0,$000
 dn ___,0,$000
 dn ___,0,$000
 dn ___,0,$000
 dn ___,0,$000
 dn ___,0,$000
 dn ___,0,$000
 dn ___,0,$000
 dn ___,0,$000
 dn ___,0,$000
 dn ___,0,$000
 dn ___,0,$000
 dn ___,0,$000
 dn ___,0,$000
 dn ___,1,$000

itNoiseSP8:
 dn 60,0,$000
 dn 60,2,$000
 dn ___,0,$000
 dn ___,0,$000
 dn ___,0,$000
 dn ___,0,$000
 dn ___,0,$000
 dn ___,0,$000
 dn ___,0,$000
 dn ___,0,$000
 dn ___,0,$000
 dn ___,0,$000
 dn ___,0,$000
 dn ___,0,$000
 dn ___,0,$000
 dn ___,0,$000
 dn ___,0,$000
 dn ___,0,$000
 dn ___,0,$000
 dn ___,0,$000
 dn ___,0,$000
 dn ___,0,$000
 dn ___,0,$000
 dn ___,0,$000
 dn ___,0,$000
 dn ___,0,$000
 dn ___,0,$000
 dn ___,0,$000
 dn ___,0,$000
 dn ___,0,$000
 dn ___,0,$000
 dn ___,1,$000

itNoiseSP9:
 dn 52,0,$000
 dn 51,2,$000
 dn ___,0,$000
 dn ___,0,$000
 dn ___,0,$000
 dn ___,0,$000
 dn ___,0,$000
 dn ___,0,$000
 dn ___,0,$000
 dn ___,0,$000
 dn ___,0,$000
 dn ___,0,$000
 dn ___,0,$000
 dn ___,0,$000
 dn ___,0,$000
 dn ___,0,$000
 dn ___,0,$000
 dn ___,0,$000
 dn ___,0,$000
 dn ___,0,$000
 dn ___,0,$000
 dn ___,0,$000
 dn ___,0,$000
 dn ___,0,$000
 dn ___,0,$000
 dn ___,0,$000
 dn ___,0,$000
 dn ___,0,$000
 dn ___,0,$000
 dn ___,0,$000
 dn ___,0,$000
 dn ___,1,$000

duty_instruments:
itSquareinst1:
db 0
db 64
db 181
dw 0
db 192

itSquareinst2:
db 0
db 128
db 181
dw 0
db 128

itSquareinst3:
db 0
db 0
db 9
dw 0
db 192

itSquareinst4:
db 0
db 0
db 181
dw 0
db 192



wave_instruments:


noise_instruments:
itNoiseinst1:
db 145
dw itNoiseSP1
db 112
ds 2

itNoiseinst2:
db 145
dw itNoiseSP2
db 96
ds 2

itNoiseinst3:
db 145
dw itNoiseSP3
db 0
ds 2

itNoiseinst4:
db 146
dw itNoiseSP4
db 0
ds 2

itNoiseinst5:
db 148
dw itNoiseSP5
db 0
ds 2

itNoiseinst6:
db 148
dw itNoiseSP6
db 0
ds 2

itNoiseinst7:
db 177
dw itNoiseSP7
db 0
ds 2

itNoiseinst8:
db 177
dw itNoiseSP8
db 128
ds 2

itNoiseinst9:
db 177
dw itNoiseSP9
db 128
ds 2



routines:
__hUGE_Routine_0:

__end_hUGE_Routine_0:
ret

__hUGE_Routine_1:

__end_hUGE_Routine_1:
ret

__hUGE_Routine_2:

__end_hUGE_Routine_2:
ret

__hUGE_Routine_3:

__end_hUGE_Routine_3:
ret

__hUGE_Routine_4:

__end_hUGE_Routine_4:
ret

__hUGE_Routine_5:

__end_hUGE_Routine_5:
ret

__hUGE_Routine_6:

__end_hUGE_Routine_6:
ret

__hUGE_Routine_7:

__end_hUGE_Routine_7:
ret

__hUGE_Routine_8:

__end_hUGE_Routine_8:
ret

__hUGE_Routine_9:

__end_hUGE_Routine_9:
ret

__hUGE_Routine_10:

__end_hUGE_Routine_10:
ret

__hUGE_Routine_11:

__end_hUGE_Routine_11:
ret

__hUGE_Routine_12:

__end_hUGE_Routine_12:
ret

__hUGE_Routine_13:

__end_hUGE_Routine_13:
ret

__hUGE_Routine_14:

__end_hUGE_Routine_14:
ret

__hUGE_Routine_15:

__end_hUGE_Routine_15:
ret

waves:

